<!DOCTYPE svg PUBLIC "-//W3C//DTD SVG 1.1//EN" "http://www.w3.org/Graphics/SVG/1.1/DTD/svg11.dtd">
<!-- Uploaded to: SVG Repo, www.svgrepo.com, Transformed by: SVG Repo Mixer Tools -->
<svg version="1.1" id="Layer_1" xmlns="http://www.w3.org/2000/svg" xmlns:xlink="http://www.w3.org/1999/xlink" width="800px" height="800px" viewBox="-10 -10 120.00 120.00" enable-background="new 0 0 100 100" xml:space="preserve" fill="#000000" stroke="#000000">
<g id="SVGRepo_bgCarrier" stroke-width="0">
<path transform="translate(-10, -10), scale(3.75)" d="M16,31.285149831324816C18.82943952033541,30.954390986301593,18.659873624328853,26.23499296289045,20.875121221877635,24.44395764934933C22.587887614699678,23.05918012074029,25.38559502722937,23.8337962293768,27.02941073638152,22.36783325765282C28.84623133685556,20.747583669008847,30.97735433117382,18.350380751880525,30.3435119651258,16C29.65302759572292,13.43958236582132,25.429244896798192,13.617545518684164,24.057604823864175,11.347939685918393C22.7317314323854,9.154062412872339,24.568101854361164,5.895890698322528,23.007884329184893,3.8619882882860335C21.433030265525126,1.8090056600006008,18.585308175577286,0.7387477738438173,16.000000000000004,0.844031348824501C13.430995235049124,0.9486509869595345,11.178614320625162,2.649269647408051,9.314082923345271,4.419651928041622C7.669651553390652,5.981048085452977,7.3770811024583605,8.413427509407443,6.073737277245932,10.269069544970984C4.604950579804541,12.360261665058381,1.687221351682917,13.495291097616494,1.1804155111312866,15.999999999999996C0.6697322205927039,18.523871829729188,1.6685713318732915,21.385530218963726,3.447759038483964,23.247039698064317C5.17676055557695,25.056040907711385,8.311859138571958,24.316769413600092,10.41919012088328,25.66624625801247C12.680784053015639,27.114508855816993,13.332596425657528,31.596966825156777,16,31.285149831324816" fill="#815ce6" strokewidth="0"/>
</g>
<g id="SVGRepo_tracerCarrier" stroke-linecap="round" stroke-linejoin="round"/>
<g id="SVGRepo_iconCarrier"> <g> <path fill="#f0e0ff" d="M67.961,45.288c0,9.919-8.041,17.96-17.96,17.96c-9.919,0-17.96-8.041-17.96-17.96 c0-2.795,0.657-5.43,1.795-7.788H14v42c0,3.85,3.15,7,7,7h58c3.85,0,7-3.15,7-7v-42H66.165 C67.304,39.858,67.961,42.493,67.961,45.288z"/> <path fill="#f0e0ff" d="M79,13.5H21c-3.85,0-7,3.15-7,7v14h21.665c3.278-4.349,8.47-7.172,14.335-7.172s11.057,2.823,14.335,7.172 H86v-14C86,16.65,82.85,13.5,79,13.5z M19.756,31.216H17.15V21.121c0-1.766,1.076-3.279,2.607-3.922V31.216z M24.026,31.216h-2.469 V16.868h2.469V31.216z M28.295,31.216h-2.469V16.868h2.469V31.216z M32.561,21.121v5.842v4.253h-2.466V16.868h2.466V21.121z M82.351,26.963c0,2.35-1.904,4.253-4.251,4.253h-6.909c-2.348,0-4.252-1.903-4.252-4.253v-5.842c0-2.35,1.904-4.253,4.252-4.253 h6.909c2.348,0,4.251,1.903,4.251,4.253V26.963z"/> <path fill="#f0e0ff" d="M50.001,61.148c8.736,0,15.818-7.085,15.818-15.819c0-8.735-7.081-15.82-15.818-15.82 c-8.738,0-15.82,7.085-15.82,15.82C34.181,54.062,41.263,61.148,50.001,61.148z M50,32.725c6.96,0,12.604,5.643,12.604,12.604 c0,6.96-5.643,12.604-12.604,12.604s-12.604-5.643-12.604-12.604C37.397,38.367,43.04,32.725,50,32.725z"/> </g> </g>
</svg>